<svg xmlns="http://www.w3.org/2000/svg" viewBox="0 0 128 128" id="Star">
  <g id="Layer_2" fill="#efaf0d" class="color000000 svgShape">
    <path id="Icons" d="M127.607 49.526a8.001 8.001 0 0 0-6.359-5.428l-33.826-5.341L71.23 4.575a8.001 8.001 0 0 0-14.461 0L40.578 38.757l-33.826 5.34a8 8 0 0 0-4.408 13.56L27.316 82.63l-7.162 35.802a8.001 8.001 0 0 0 11.73 8.562L64 109.152l32.115 17.842a8 8 0 0 0 11.73-8.562l-7.161-35.802 24.972-24.974a7.995 7.995 0 0 0 1.951-8.13z" fill="#efaf0d" class="color000000 svgShape"></path>
  </g>
</svg>
